# WaveFront *.obj file (generated by Autodesk ATF)

mtllib Lock.mtl

g Body1

v -0.707107 -0.707107 0.000000
v -0.007107 -0.707107 0.000000
v 0.242893 -0.457107 0.250000
v -0.457107 -0.457107 0.250000
v -0.457107 0.242893 0.250000
v -0.707107 -0.007107 0.000000
v 0.000000 0.700000 0.250000
v 0.000000 0.700000 0.000000
v 0.700000 0.000000 0.250000
v 4.800000 0.000000 0.250000
v 5.257107 -0.457107 0.250000
v 5.957107 -0.457107 0.250000
v 5.957107 0.242893 0.250000
v 5.500000 0.700000 0.250000
v 5.500000 6.500000 0.250000
v 5.500000 12.300000 0.250000
v 5.957107 12.757107 0.250000
v 5.957107 13.457107 0.250000
v 5.257106 13.457107 0.250000
v 4.799996 13.000000 0.250000
v 0.700000 13.000000 0.250000
v 0.242893 13.457107 0.250000
v -0.457107 13.457107 0.250000
v -0.457107 12.757107 0.250000
v 0.000000 12.300000 0.250000
v 0.000000 6.500000 0.250000
v 6.207107 -0.707107 0.000000
v 6.207107 -0.007107 0.000000
v 5.507107 -0.707107 0.000000
v 4.800000 0.000000 0.000000
v 6.207107 13.707107 0.000000
v 5.507107 13.707107 0.000000
v 6.207107 13.007107 0.000000
v 5.500000 12.300000 0.000000
v -0.707107 13.707107 0.000000
v -0.707107 13.007107 0.000000
v -0.007107 13.707107 0.000000
v 0.000000 12.300000 0.000000
v 5.500000 0.700000 0.000000
v 5.500000 6.500000 0.000000
v 0.700000 0.000000 0.000000
v 0.000000 6.500000 0.000000
v 0.700000 13.000000 0.000000
v 4.799996 13.000000 0.000000
vt -1.728553 -0.176777 0.000000
vt -1.028553 -0.176777 0.000000
vt -1.478553 0.176777 0.000000
vt -0.778553 0.176777 0.000000
vt 0.176777 -3.003553 0.000000
vt -0.176777 -3.253553 0.000000
vt 0.176777 -3.703553 0.000000
vt -0.176777 -3.953553 0.000000
vt 1.000000 0.000000 0.000000
vt 0.646447 0.250000 0.000000
vt -0.000000 0.000000 0.000000
vt -0.000000 0.250000 0.000000
vt -3.207107 -6.957107 0.000000
vt -2.507107 -6.957107 0.000000
vt -3.207107 -6.257107 0.000000
vt -2.750000 -5.800000 0.000000
vt -2.050000 -6.500000 0.000000
vt 2.750000 -5.800000 0.000000
vt 2.050000 -6.500000 0.000000
vt 2.507107 -6.957107 0.000000
vt 3.207107 -6.957107 0.000000
vt 3.207107 -6.257107 0.000000
vt -2.750000 -0.000000 0.000000
vt 2.750000 0.000000 0.000000
vt -2.750000 5.800000 0.000000
vt 2.750000 5.800000 0.000000
vt 2.049996 6.500000 0.000000
vt 2.507105 6.957107 0.000000
vt 3.207107 6.257107 0.000000
vt 3.207107 6.957107 0.000000
vt -2.050000 6.500000 0.000000
vt -2.507107 6.957107 0.000000
vt -3.207107 6.257107 0.000000
vt -3.207107 6.957107 0.000000
vt 0.176777 -3.603553 0.000000
vt 0.176777 -2.903553 0.000000
vt -0.176777 -3.353553 0.000000
vt -0.176777 -2.653553 0.000000
vt 1.128553 0.176777 0.000000
vt 1.378553 -0.176777 0.000000
vt 1.828553 0.176777 0.000000
vt 2.078553 -0.176777 0.000000
vt 1.000000 0.000000 0.000000
vt 0.646447 0.250000 0.000000
vt 0.000000 0.000000 0.000000
vt 0.000000 0.250000 0.000000
vt 1.728553 0.176777 0.000000
vt 1.028553 0.176777 0.000000
vt 1.478553 -0.176777 0.000000
vt 0.778552 -0.176777 0.000000
vt -0.176777 3.003554 0.000000
vt 0.176777 3.253553 0.000000
vt -0.176777 3.703553 0.000000
vt 0.176777 3.953553 0.000000
vt 1.000000 0.000000 0.000000
vt 0.646447 0.250000 0.000000
vt 0.000000 0.000000 0.000000
vt 0.000000 0.250000 0.000000
vt -0.176777 3.603553 0.000000
vt -0.176777 2.903553 0.000000
vt 0.176777 3.353553 0.000000
vt 0.176777 2.653553 0.000000
vt -1.128553 -0.176777 0.000000
vt -1.378553 0.176777 0.000000
vt -1.828553 -0.176777 0.000000
vt -2.078553 0.176777 0.000000
vt 0.000000 0.000000 0.000000
vt 1.000000 0.000000 0.000000
vt 0.353553 0.250000 0.000000
vt 1.000000 0.250000 0.000000
vt 0.000000 0.000000 0.000000
vt 5.800000 0.000000 0.000000
vt 0.000000 0.250000 0.000000
vt 5.800000 0.250000 0.000000
vt 11.600000 0.000000 0.000000
vt 11.600000 0.250000 0.000000
vt 0.000000 0.000000 0.000000
vt 1.000000 0.000000 0.000000
vt 0.353553 0.250000 0.000000
vt 1.000000 0.250000 0.000000
vt 0.000000 0.000000 0.000000
vt 4.100000 0.000000 0.000000
vt 0.000000 0.250000 0.000000
vt 4.100000 0.250000 0.000000
vt 0.000000 0.000000 0.000000
vt 1.000000 0.000000 0.000000
vt 0.353553 0.250000 0.000000
vt 1.000000 0.250000 0.000000
vt -0.000000 0.000000 0.000000
vt 5.800000 0.000000 0.000000
vt -0.000000 0.250000 0.000000
vt 5.800000 0.250000 0.000000
vt 11.600000 0.000000 0.000000
vt 11.600000 0.250000 0.000000
vt 1.000000 0.000000 0.000000
vt 0.646446 0.250000 0.000000
vt 0.000000 0.000000 0.000000
vt 0.000000 0.250000 0.000000
vt 0.000000 0.000000 0.000000
vt 4.099996 0.000000 0.000000
vt 0.000000 0.250000 0.000000
vt 4.099996 0.250000 0.000000
vt 0.000000 0.000000 0.000000
vt 1.000003 0.000000 0.000000
vt 0.353554 0.250000 0.000000
vt 1.000003 0.250000 0.000000
vt -3.457107 7.207107 0.000000
vt -3.457107 6.507107 0.000000
vt -2.757107 7.207107 0.000000
vt -2.750000 5.800000 0.000000
vt -2.049996 6.500000 0.000000
vt 2.750000 5.800000 0.000000
vt 2.050000 6.500000 0.000000
vt 2.757107 7.207107 0.000000
vt 3.457107 6.507107 0.000000
vt 3.457107 7.207107 0.000000
vt -2.750000 0.000000 0.000000
vt 2.750000 -0.000000 0.000000
vt -2.750000 -5.800000 0.000000
vt 2.750000 -5.800000 0.000000
vt 2.050000 -6.500000 0.000000
vt 2.757107 -7.207107 0.000000
vt -3.457107 -6.507107 0.000000
vt -2.757107 -7.207107 0.000000
vt -2.050000 -6.500000 0.000000
vt -3.457107 -7.207107 0.000000
vt 3.457107 -7.207107 0.000000
vt 3.457107 -6.507107 0.000000
vn 0.000000 -0.707107 0.707107
vn 0.000000 -0.707107 0.707107
vn 0.000000 -0.707107 0.707107
vn 0.000000 -0.707107 0.707107
vn -0.707107 0.000000 0.707107
vn -0.707107 0.000000 0.707107
vn -0.707107 0.000000 0.707107
vn -0.707107 0.000000 0.707107
vn -0.707107 0.707107 0.000000
vn -0.707107 0.707107 0.000000
vn -0.707107 0.707107 0.000000
vn -0.707107 0.707107 0.000000
vn 0.000000 0.000000 1.000000
vn 0.000000 0.000000 1.000000
vn 0.000000 0.000000 1.000000
vn 0.000000 0.000000 1.000000
vn 0.000000 0.000000 1.000000
vn 0.000000 0.000000 1.000000
vn 0.000000 0.000000 1.000000
vn 0.000000 0.000000 1.000000
vn 0.000000 0.000000 1.000000
vn 0.000000 0.000000 1.000000
vn 0.000000 0.000000 1.000000
vn 0.000000 0.000000 1.000000
vn 0.000000 0.000000 1.000000
vn 0.000000 0.000000 1.000000
vn 0.000000 0.000000 1.000000
vn 0.000000 0.000000 1.000000
vn 0.000000 0.000000 1.000000
vn 0.000000 0.000000 1.000000
vn 0.000000 0.000000 1.000000
vn 0.000000 0.000000 1.000000
vn 0.000000 0.000000 1.000000
vn 0.000000 0.000000 1.000000
vn 0.707107 -0.000000 0.707107
vn 0.707107 -0.000000 0.707107
vn 0.707107 -0.000000 0.707107
vn 0.707107 -0.000000 0.707107
vn 0.000000 -0.707107 0.707107
vn 0.000000 -0.707107 0.707107
vn 0.000000 -0.707107 0.707107
vn 0.000000 -0.707107 0.707107
vn -0.707107 -0.707107 0.000000
vn -0.707107 -0.707107 0.000000
vn -0.707107 -0.707107 0.000000
vn -0.707107 -0.707107 0.000000
vn 0.000000 0.707107 0.707107
vn 0.000000 0.707107 0.707107
vn 0.000000 0.707107 0.707107
vn 0.000000 0.707107 0.707107
vn 0.707107 0.000000 0.707107
vn 0.707107 0.000000 0.707107
vn 0.707107 0.000000 0.707107
vn 0.707107 0.000000 0.707107
vn 0.707107 -0.707107 0.000000
vn 0.707107 -0.707107 0.000000
vn 0.707107 -0.707107 0.000000
vn 0.707107 -0.707107 0.000000
vn -0.707107 0.000000 0.707107
vn -0.707107 0.000000 0.707107
vn -0.707107 0.000000 0.707107
vn -0.707107 0.000000 0.707107
vn 0.000000 0.707107 0.707107
vn 0.000000 0.707107 0.707107
vn 0.000000 0.707107 0.707107
vn 0.000000 0.707107 0.707107
vn -0.707107 -0.707107 0.000000
vn -0.707107 -0.707107 0.000000
vn -0.707107 -0.707107 0.000000
vn -0.707107 -0.707107 0.000000
vn 1.000000 0.000000 -0.000000
vn 1.000000 0.000000 -0.000000
vn 1.000000 0.000000 -0.000000
vn 1.000000 0.000000 -0.000000
vn 1.000000 0.000000 -0.000000
vn 1.000000 0.000000 -0.000000
vn 0.707107 0.707107 -0.000000
vn 0.707107 0.707107 -0.000000
vn 0.707107 0.707107 -0.000000
vn 0.707107 0.707107 -0.000000
vn 0.000000 -1.000000 0.000000
vn 0.000000 -1.000000 0.000000
vn 0.000000 -1.000000 0.000000
vn 0.000000 -1.000000 0.000000
vn 0.707107 -0.707107 0.000000
vn 0.707107 -0.707107 0.000000
vn 0.707107 -0.707107 0.000000
vn 0.707107 -0.707107 0.000000
vn -1.000000 0.000000 0.000000
vn -1.000000 0.000000 0.000000
vn -1.000000 0.000000 0.000000
vn -1.000000 0.000000 0.000000
vn -1.000000 0.000000 0.000000
vn -1.000000 0.000000 0.000000
vn 0.707107 0.707107 -0.000000
vn 0.707107 0.707107 -0.000000
vn 0.707107 0.707107 -0.000000
vn 0.707107 0.707107 -0.000000
vn 0.000000 1.000000 -0.000000
vn 0.000000 1.000000 -0.000000
vn 0.000000 1.000000 -0.000000
vn 0.000000 1.000000 -0.000000
vn -0.707105 0.707109 0.000000
vn -0.707105 0.707109 0.000000
vn -0.707105 0.707109 0.000000
vn -0.707105 0.707109 0.000000
vn -0.000000 0.000000 -1.000000
vn -0.000000 0.000000 -1.000000
vn -0.000000 0.000000 -1.000000
vn -0.000000 0.000000 -1.000000
vn -0.000000 0.000000 -1.000000
vn -0.000000 0.000000 -1.000000
vn -0.000000 0.000000 -1.000000
vn -0.000000 0.000000 -1.000000
vn -0.000000 0.000000 -1.000000
vn -0.000000 0.000000 -1.000000
vn -0.000000 0.000000 -1.000000
vn -0.000000 0.000000 -1.000000
vn -0.000000 0.000000 -1.000000
vn -0.000000 0.000000 -1.000000
vn -0.000000 0.000000 -1.000000
vn -0.000000 0.000000 -1.000000
vn -0.000000 0.000000 -1.000000
vn -0.000000 0.000000 -1.000000
vn -0.000000 0.000000 -1.000000
vn -0.000000 0.000000 -1.000000
vn -0.000000 0.000000 -1.000000
vn -0.000000 0.000000 -1.000000
usemtl Steel_-_Satin
f 1/1/1 2/2/2 4/3/3
f 4/3/3 2/2/2 3/4/4
f 5/5/5 6/6/6 4/7/7
f 4/7/7 6/6/6 1/8/8
f 6/9/9 5/10/10 8/11/11
f 8/11/11 5/10/10 7/12/12
f 4/13/13 3/14/14 5/15/15
f 5/15/15 3/14/14 7/16/16
f 7/16/16 3/14/14 9/17/17
f 7/16/16 9/17/17 14/18/18
f 14/18/18 9/17/17 10/19/19
f 14/18/18 10/19/19 11/20/20
f 12/21/21 13/22/22 11/20/20
f 11/20/20 13/22/22 14/18/18
f 7/16/16 14/18/18 26/23/23
f 26/23/23 14/18/18 15/24/24
f 26/23/23 15/24/24 25/25/25
f 25/25/25 15/24/24 16/26/26
f 25/25/25 16/26/26 20/27/27
f 20/27/27 16/26/26 19/28/28
f 19/28/28 16/26/26 17/29/29
f 19/28/28 17/29/29 18/30/30
f 20/27/27 21/31/31 25/25/25
f 25/25/25 21/31/31 22/32/32
f 25/25/25 22/32/32 24/33/33
f 24/33/33 22/32/32 23/34/34
f 27/35/35 28/36/36 12/37/37
f 12/37/37 28/36/36 13/38/38
f 11/39/39 29/40/40 12/41/41
f 12/41/41 29/40/40 27/42/42
f 29/43/43 11/44/44 30/45/45
f 30/45/45 11/44/44 10/46/46
f 31/47/47 32/48/48 18/49/49
f 18/49/49 32/48/48 19/50/50
f 17/51/51 33/52/52 18/53/53
f 18/53/53 33/52/52 31/54/54
f 33/55/55 17/56/56 34/57/57
f 34/57/57 17/56/56 16/58/58
f 35/59/59 36/60/60 23/61/61
f 23/61/61 36/60/60 24/62/62
f 22/63/63 37/64/64 23/65/65
f 23/65/65 37/64/64 35/66/66
f 36/67/67 38/68/68 24/69/69
f 24/69/69 38/68/68 25/70/70
f 39/71/71 40/72/72 14/73/73
f 14/73/73 40/72/72 15/74/74
f 15/74/74 40/72/72 34/75/75
f 15/74/74 34/75/75 16/76/76
f 28/77/77 39/78/78 13/79/79
f 13/79/79 39/78/78 14/80/80
f 41/81/81 30/82/82 9/83/83
f 9/83/83 30/82/82 10/84/84
f 2/85/85 41/86/86 3/87/87
f 3/87/87 41/86/86 9/88/88
f 38/89/89 42/90/90 25/91/91
f 25/91/91 42/90/90 26/92/92
f 26/92/92 42/90/90 8/93/93
f 26/92/92 8/93/93 7/94/94
f 37/95/95 22/96/96 43/97/97
f 43/97/97 22/96/96 21/98/98
f 44/99/99 43/100/100 20/101/101
f 20/101/101 43/100/100 21/102/102
f 32/103/103 44/104/104 19/105/105
f 19/105/105 44/104/104 20/106/106
f 31/107/107 33/108/108 32/109/109
f 32/109/109 33/108/108 34/110/110
f 32/109/109 34/110/110 44/111/111
f 44/111/111 34/110/110 38/112/112
f 44/111/111 38/112/112 43/113/113
f 43/113/113 38/112/112 37/114/114
f 37/114/114 38/112/112 36/115/115
f 37/114/114 36/115/115 35/116/116
f 34/110/110 40/117/117 38/112/112
f 38/112/112 40/117/117 42/118/118
f 42/118/118 40/117/117 39/119/119
f 42/118/118 39/119/119 8/120/120
f 8/120/120 39/119/119 41/121/121
f 8/120/120 41/121/121 2/122/122
f 28/123/123 29/124/124 39/119/119
f 39/119/119 29/124/124 30/125/125
f 39/119/119 30/125/125 41/121/121
f 28/123/123 27/126/126 29/124/124
f 1/127/127 6/128/128 2/122/122
f 2/122/122 6/128/128 8/120/120
# 44 vertices
# 128 texture params
# 128 normals
# 84 facets

# 1 groups
